<svg xmlns="http://www.w3.org/2000/svg" viewBox="0 0 200 200" width="200" height="200">
  <defs>
    <radialGradient id="bg" cx="50%" cy="40%" r="60%">
      <stop offset="0%" stop-color="#003300"/>
      <stop offset="100%" stop-color="#001100"/>
    </radialGradient>
    <filter id="glow">
      <feGaussianBlur stdDeviation="2.5" result="coloredBlur"/>
      <feMerge>
        <feMergeNode in="coloredBlur"/>
        <feMergeNode in="SourceGraphic"/>
      </feMerge>
    </filter>
  </defs>
  <ellipse cx="100" cy="130" rx="44" ry="48" fill="#00993a" filter="url(#glow)"/>
  <ellipse cx="100" cy="72" rx="37" ry="41" fill="#00bb44" filter="url(#glow)"/>
  <ellipse cx="84" cy="64" rx="10" ry="13" fill="#00ff88"/>
  <ellipse cx="116" cy="64" rx="10" ry="13" fill="#00ff88"/>
  <ellipse cx="84" cy="66" rx="5" ry="7" fill="#001a00"/>
  <ellipse cx="116" cy="66" rx="5" ry="7" fill="#001a00"/>
  <ellipse cx="84" cy="62" rx="10" ry="13" fill="none" stroke="#00ff41" stroke-width="1.5" filter="url(#glow)"/>
  <ellipse cx="116" cy="62" rx="10" ry="13" fill="none" stroke="#00ff41" stroke-width="1.5" filter="url(#glow)"/>
  <circle cx="100" cy="124" r="13" fill="#002200" stroke="#00ff41" stroke-width="2" filter="url(#glow)"/>
  <circle cx="100" cy="124" r="6" fill="#00ff41" filter="url(#glow)"/>
  <ellipse cx="52" cy="124" rx="12" ry="27" fill="#00993a" transform="rotate(-8 52 124)"/>
  <ellipse cx="148" cy="124" rx="12" ry="27" fill="#00993a" transform="rotate(8 148 124)"/>
  <ellipse cx="80" cy="171" rx="13" ry="21" fill="#008833" transform="rotate(-4 80 171)"/>
  <ellipse cx="120" cy="171" rx="13" ry="21" fill="#008833" transform="rotate(4 120 171)"/>
</svg>
